<svg xmlns="http://www.w3.org/2000/svg" width="20" height="20" viewBox="0 0 20 20">
  <defs>
    <style>
      .cls-1 {
        fill: #a21594;
      }
    </style>
  </defs>
  <path id="Path_107" data-name="Path 107" class="cls-1" d="M1216.291,380.386a10,10,0,1,0,9.994,9.994A10.036,10.036,0,0,0,1216.291,380.386Zm4.37,12.663a.764.764,0,0,1,0,1.077l-.636.636a.764.764,0,0,1-1.077,0l-2.663-2.663-2.663,2.663a.764.764,0,0,1-1.077,0l-.636-.636a.764.764,0,0,1,0-1.077l2.663-2.663-2.663-2.663a.763.763,0,0,1,0-1.077l.636-.637a.764.764,0,0,1,1.077,0l2.663,2.663,2.663-2.663a.764.764,0,0,1,1.077,0l.636.637a.763.763,0,0,1,0,1.077L1218,390.386Z" transform="translate(-1206.284 -380.386)"/>
</svg>
