<svg xmlns="http://www.w3.org/2000/svg" width="24" height="24" viewBox="0 0 24 24">
  <defs>
    <style>
      .cls-1 {
        fill: #fff;
      }
    </style>
  </defs>
  <path id="Path_86" data-name="Path 86" class="cls-1" d="M619.376,115.036q5.444,0,10.887,0c.41,0,.8.013,1.022.442s-.03.721-.258,1.031q-4.057,5.518-8.1,11.047a1.71,1.71,0,0,0-.309.929q-.037,3.764-.007,7.529a1.082,1.082,0,0,1-.8,1.173c-1.471.541-2.925,1.132-4.386,1.7-.917.357-1.31.08-1.31-.926,0-3.142.008-6.284-.016-9.425a1.8,1.8,0,0,0-.318-.978q-4-5.524-8.046-11.019c-.237-.324-.506-.636-.273-1.076.226-.425.621-.427,1.031-.427Q613.932,115.039,619.376,115.036Z" transform="translate(-607.368 -115.033)"/>
</svg>
