<svg xmlns="http://www.w3.org/2000/svg" width="30" height="30" viewBox="0 0 30 30">
  <defs>
    <style>
      .cls-1 {
        fill: #83c127;
      }
    </style>
  </defs>
  <g id="Group_134" data-name="Group 134" transform="translate(-935.617 -288.079)">
    <path id="Path_102" data-name="Path 102" class="cls-1" d="M935.617,303.087a15,15,0,1,1,14.99,14.992A15.046,15.046,0,0,1,935.617,303.087Zm26.231,0a11.23,11.23,0,1,0-11.276,11.225A11.222,11.222,0,0,0,961.848,303.085Z" transform="translate(0 0)"/>
    <path id="Path_103" data-name="Path 103" class="cls-1" d="M955.763,312.45c2.2-2.015,4.277-3.927,6.364-5.832a2.017,2.017,0,0,1,2.732-.238,1.587,1.587,0,0,1,.17,2.58q-3.937,3.653-7.939,7.248a1.889,1.889,0,0,1-2.607-.005q-2.034-1.791-4-3.648a1.566,1.566,0,0,1,.023-2.487,2.026,2.026,0,0,1,2.737.025C954.087,310.837,954.882,311.621,955.763,312.45Z" transform="translate(-7.134 -8.249)"/>
  </g>
</svg>
