<svg xmlns="http://www.w3.org/2000/svg" width="93.46" height="116.357" viewBox="0 0 93.46 116.357">
  <defs>
    <style>
      .cls-1 {
        fill: #a21594;
      }
    </style>
  </defs>
  <g id="Group_56" data-name="Group 56" transform="translate(-536.114 -166.643)">
    <path id="Path_73" data-name="Path 73" class="cls-1" d="M536.116,224.827q0-22.92,0-45.84c0-7.793,4.52-12.326,12.35-12.332q34.38-.024,68.761,0c7.88.006,12.34,4.472,12.342,12.3q.006,45.84,0,91.681c0,7.8-4.519,12.348-12.33,12.353q-34.38.025-68.761,0c-7.836-.006-12.359-4.534-12.362-12.32Q536.108,247.748,536.116,224.827Zm6.395-.241q0,23.039,0,46.078c0,4.422,1.636,6.06,6.064,6.062q34.266.009,68.531,0c4.43,0,6.067-1.64,6.067-6.06q.006-45.843,0-91.687c0-4.422-1.636-6.061-6.064-6.062q-34.266-.009-68.531,0c-4.43,0-6.065,1.64-6.067,6.06Q542.505,201.781,542.511,224.586Z"/>
    <path id="Path_74" data-name="Path 74" class="cls-1" d="M573.784,209.3c-4.012,4.021-7.9,8.051-11.97,11.9a5.226,5.226,0,0,1-3.631,1.4c-2.176-.234-3.072-3.293-1.452-4.967q7.471-7.725,15.194-15.206c1.5-1.457,3.158-1.013,4.533.425,1.982,2.074,3.936,4.175,5.768,6.122l16.453-16.311c-1.807,0-3.28.02-4.752,0-2.624-.042-4.064-1.193-4.024-3.182.039-1.893,1.461-3.031,3.909-3.044q6.076-.034,12.152,0c2.669.02,3.831,1.159,3.86,3.843q.068,6.075,0,12.151c-.025,2.37-1.3,3.812-3.206,3.8-1.922-.013-3.107-1.44-3.143-3.829-.023-1.477-.005-2.954-.005-5.032-.918.818-1.528,1.308-2.078,1.857q-7.7,7.674-15.373,15.363c-2.782,2.778-3.893,2.761-6.739-.072q-2.4-2.39-4.809-4.773A5.762,5.762,0,0,0,573.784,209.3Z"/>
    <path id="Path_75" data-name="Path 75" class="cls-1" d="M582.971,258.077c7.94,0,15.88-.018,23.819.024a4.238,4.238,0,0,1,2.623.593c.764.7,1.6,1.977,1.454,2.846a4.947,4.947,0,0,1-2.181,2.641,4.857,4.857,0,0,1-2.5.25q-23.235.016-46.47.008c-.467,0-.936.02-1.4-.01-2.169-.141-3.553-1.434-3.513-3.263s1.448-3.071,3.65-3.078C566.625,258.063,574.8,258.078,582.971,258.077Z"/>
    <path id="Path_76" data-name="Path 76" class="cls-1" d="M582.959,240.285q11.909,0,23.818,0c2.7,0,4.274,1.22,4.239,3.224-.033,1.946-1.513,3.112-4.118,3.114q-24.051.022-48.1.013c-1.9,0-3.658-.587-3.826-2.578-.092-1.1.9-2.456,1.736-3.394.424-.475,1.6-.367,2.436-.369C567.08,240.275,575.02,240.285,582.959,240.285Z"/>
  </g>
</svg>
