<svg xmlns="http://www.w3.org/2000/svg" width="17.049" height="26.487" viewBox="0 0 17.049 26.487">
  <defs>
    <style>
      .cls-1 {
        fill: #fff;
      }
    </style>
  </defs>
  <g id="Group_64" data-name="Group 64" transform="translate(-1586 -57)">
    <g id="Group_63" data-name="Group 63" transform="translate(780.824 -62.513)">
      <path id="Path_81" data-name="Path 81" class="cls-1" d="M813.764,119.513a8.388,8.388,0,0,1,7.015,3.116,6.645,6.645,0,0,1,.139,8.094,29.185,29.185,0,0,1-2.813,2.949c-.966.954-2.095,1.789-2.295,3.267a19.243,19.243,0,0,0-.148,1.936c-.016.5-.246.74-.738.741-.871,0-1.742,0-2.613,0-.49,0-.711-.223-.748-.728a8.3,8.3,0,0,1,2.791-7.21c.784-.7,1.548-1.417,2.309-2.139a3.2,3.2,0,0,0,.978-3.81,3.9,3.9,0,0,0-3.567-2.52c-2.357-.142-3.9,1.167-4.476,3.714-.049.217-.1.436-.129.656a.6.6,0,0,1-.75.572c-.976-.111-1.949-.241-2.924-.359-.514-.062-.665-.366-.607-.845C805.759,122.263,808.974,119.474,813.764,119.513Z"/>
      <path id="Path_82" data-name="Path 82" class="cls-1" d="M815.9,143.664c0,.557,0,1.114,0,1.671a.6.6,0,0,1-.665.661q-1.638.008-3.275,0a.6.6,0,0,1-.666-.661c-.005-1.092,0-2.183,0-3.275a.627.627,0,0,1,.7-.7q1.6-.017,3.208,0c.493,0,.717.277.7.771C815.893,142.638,815.9,143.151,815.9,143.664Z"/>
    </g>
  </g>
</svg>
