<svg xmlns="http://www.w3.org/2000/svg" width="23.479" height="32" viewBox="0 0 23.479 32">
  <defs>
    <style>
      .cls-1 {
        fill: #565656;
      }
    </style>
  </defs>
  <g id="Group_6" data-name="Group 6" transform="translate(-121.148 -134.923)">
    <path id="Path_3" data-name="Path 3" class="cls-1" d="M144.627,148.91v15.735a3.877,3.877,0,0,1-4.01,2.277c-5.275-.085-10.553-.025-15.83-.032-2.483,0-3.634-1.171-3.637-3.677q-.008-6.108,0-12.215c0-2.64,0-2.638,2.669-2.777a3.448,3.448,0,0,0,.559-.14c0-1.639-.032-3.253.007-4.865a8.491,8.491,0,0,1,5.753-7.819c.421-.146.834-.315,1.251-.474h3c.059.056.108.141.177.164,4.854,1.558,6.839,4.279,6.843,9.388,0,1.227,0,2.455,0,3.372Zm-21,1.856c0,4.352-.02,8.624.05,12.894,0,.256.726.714,1.116.718,5.4.047,10.809.018,16.213.046.87,0,1.172-.3,1.159-1.161-.039-2.494-.013-4.989-.013-7.483v-5.014Zm15.3-2.576c0-1.718.048-3.33-.01-4.939a6.042,6.042,0,0,0-5.209-5.8,5.815,5.815,0,0,0-6.568,4.313,41.4,41.4,0,0,0-.415,6.429Z"/>
    <path id="Path_4" data-name="Path 4" class="cls-1" d="M131.487,157.352a7.415,7.415,0,0,1,.048-2.063,1.915,1.915,0,0,1,1.112-1.161c.746-.189,1.223.4,1.246,1.145a34.2,34.2,0,0,1-.045,4.391,1.59,1.59,0,0,1-1.15,1.063c-.4,0-1.031-.614-1.155-1.068a9.085,9.085,0,0,1-.052-2.307Z" transform="translate(0.189 0.399)"/>
  </g>
</svg>
