<svg xmlns="http://www.w3.org/2000/svg" width="89.013" height="116.102" viewBox="0 0 89.013 116.102">
  <defs>
    <style>
      .cls-1 {
        fill: #43b02a;
      }
    </style>
  </defs>
  <g id="Group_57" data-name="Group 57" transform="translate(-913 -335)">
    <path id="Path_63" data-name="Path 63" class="cls-1" d="M529,223.04q0,25.394,0,50.786c0,4.937-2.3,7.263-7.194,7.264q-37.244.008-74.486.005c-5.066,0-7.323-2.276-7.324-7.385q-.006-50.422-.007-100.845c0-5.79,2.065-7.871,7.807-7.871q37,0,74,0c4.892,0,7.2,2.343,7.2,7.257Q529,197.649,529,223.04Zm-3.869.063q0-25.517,0-51.032c0-2.983-.224-3.2-3.143-3.2q-37.366,0-74.735,0c-3.2,0-3.384.167-3.385,3.2q0,50.79,0,101.58c0,3.489.092,3.573,3.5,3.573q37.125,0,74.251,0c3.414,0,3.509-.1,3.509-3.57Q525.129,248.378,525.13,223.1Z" transform="translate(473.013 170.007)"/>
    <path id="Path_64" data-name="Path 64" class="cls-1" d="M496.528,186.722l-13.711,7.3,13.674,7.272a19.021,19.021,0,0,1-20.847,11.823c-9.531-1.778-16.187-9.467-16.3-18.831a19.377,19.377,0,0,1,15.307-19.159C483.932,173.175,492.6,177.718,496.528,186.722Zm-5.363,16.141-11.911-6.32-7.762,10.823C477.27,211.507,486.386,209.458,491.165,202.863Zm-11.9-11.374,11.866-6.31c-4.358-6.352-13.564-8.652-18.809-4.761Zm-16,.482h11.654l-6.114-9.946A16.465,16.465,0,0,0,463.271,191.971Zm5.006,13.42,6.611-9.312H463.507A14.129,14.129,0,0,0,468.277,205.391Z" transform="translate(473.013 170.007)"/>
    <path id="Path_65" data-name="Path 65" class="cls-1" d="M499.879,230.908v34.537H486.572V230.908Zm-3.941,30.725V234.852h-5.514v26.781Z" transform="translate(473.013 170.007)"/>
    <path id="Path_66" data-name="Path 66" class="cls-1" d="M517.3,234.765v30.69H503.976v-30.69ZM507.829,261.6h5.538V238.709h-5.538Z" transform="translate(473.013 170.007)"/>
    <path id="Path_67" data-name="Path 67" class="cls-1" d="M504.547,217.992l7.005,8.881-11.213,1.746c.4-1.383.7-2.4,1.069-3.653-2.608-1.052-5.166-2.186-7.81-3.059-.5-.165-1.523.557-1.993,1.127-4.97,6.026-9.875,12.107-14.8,18.168-.5.613-1.032,1.2-1.65,1.912l-16.953-12.7,2.284-3.1,13.935,10.409c1.828-2.2,3.61-4.344,5.382-6.493,3.38-4.1,6.821-8.156,10.1-12.34,1.22-1.558,2.277-2.049,4.189-1.158,2.825,1.318,5.8,2.316,8.83,3.5Z" transform="translate(473.013 170.007)"/>
    <path id="Path_68" data-name="Path 68" class="cls-1" d="M451.7,265.486v-26.8H465v26.8Zm3.936-22.981v19.043h5.52V242.505Z" transform="translate(473.013 170.007)"/>
    <path id="Path_69" data-name="Path 69" class="cls-1" d="M451.721,273.221V269.65h65.506v3.571Z" transform="translate(473.013 170.007)"/>
    <path id="Path_70" data-name="Path 70" class="cls-1" d="M486.232,194.017l20.138-10.733a18.444,18.444,0,0,1,0,21.469Zm8.157.01,10.171,5.556a14.177,14.177,0,0,0,.135-11.1Z" transform="translate(473.013 170.007)"/>
    <path id="Path_71" data-name="Path 71" class="cls-1" d="M482.366,265.563H469.2V246.42h13.17Zm-9.355-15.321v11.349h5.507V250.242Z" transform="translate(473.013 170.007)"/>
  </g>
</svg>
