<svg xmlns="http://www.w3.org/2000/svg" width="27.81" height="26.041" viewBox="0 0 27.81 26.041">
  <defs>
    <style>
      .cls-1 {
        fill: #fff;
      }
    </style>
  </defs>
  <path id="Path_85" data-name="Path 85" class="cls-1" d="M648.433,129.089a6.32,6.32,0,0,1-.951.378,1.509,1.509,0,0,1-1.221-2.64c1.158-1.009,2.338-1.992,3.511-2.985l8.628-7.3a1.562,1.562,0,0,1,2.395-.043q6.054,5.113,12.1,10.241a1.519,1.519,0,0,1-1.739,2.491l-.323-.179V140.6c0,1.13-.274,1.4-1.425,1.4H662.9V131.612h-6.548V142h-.725q-2.917,0-5.837,0c-1.084,0-1.355-.267-1.355-1.332q0-5.314,0-10.629Z" transform="translate(-645.722 -115.959)"/>
</svg>
