<svg xmlns="http://www.w3.org/2000/svg" width="21.002" height="22" viewBox="0 0 21.002 22">
  <path id="Path_2" data-name="Path 2" d="M87.425,151.97a6.684,6.684,0,1,1,7.123-.031c.636.211,1.266.394,1.877.63a8.938,8.938,0,0,1,3.764,2.564,5.513,5.513,0,0,1,1.24,2.76,1.723,1.723,0,0,1-.936,1.991,12.786,12.786,0,0,1-2.9,1.064,32.822,32.822,0,0,1-13.8-.115,9.1,9.1,0,0,1-1.96-.707,2.009,2.009,0,0,1-1.252-2.692,6.35,6.35,0,0,1,3.016-3.91A12.056,12.056,0,0,1,87.425,151.97Zm3.544,8.269.015.133c1.938-.209,3.885-.359,5.811-.654a17.522,17.522,0,0,0,2.832-.857.638.638,0,0,0,.432-.891,8.865,8.865,0,0,0-.837-1.838,6.185,6.185,0,0,0-2.629-2.011,13.56,13.56,0,0,0-7.493-1.067,10.953,10.953,0,0,0-5.067,1.816,4.822,4.822,0,0,0-2.174,3.063.734.734,0,0,0,.451.939,13.054,13.054,0,0,0,1.3.5A26.634,26.634,0,0,0,90.969,160.239Zm.016-19.257a5.292,5.292,0,1,0,5.288,5.351A5.306,5.306,0,0,0,90.985,140.982Z" transform="translate(-80.46 -139.626)" fill="#565656"/>
</svg>
