<svg xmlns="http://www.w3.org/2000/svg" width="30.548" height="32" viewBox="0 0 30.548 32">
  <defs>
    <style>
      .cls-1 {
        fill: #565656;
      }
    </style>
  </defs>
  <path id="Path_2" data-name="Path 2" class="cls-1" d="M90.59,157.581a9.721,9.721,0,1,1,10.361-.045c.925.307,1.842.573,2.731.916a13,13,0,0,1,5.474,3.73,8.02,8.02,0,0,1,1.8,4.015,2.506,2.506,0,0,1-1.362,2.9,18.6,18.6,0,0,1-4.222,1.548,47.74,47.74,0,0,1-20.076-.167,13.23,13.23,0,0,1-2.851-1.028c-1.831-.891-2.283-1.932-1.82-3.915a9.236,9.236,0,0,1,4.387-5.688A17.537,17.537,0,0,1,90.59,157.581Zm5.155,12.028.022.194c2.818-.3,5.651-.523,8.452-.951a25.483,25.483,0,0,0,4.119-1.247.929.929,0,0,0,.628-1.3,12.893,12.893,0,0,0-1.217-2.673,9,9,0,0,0-3.824-2.926,19.723,19.723,0,0,0-10.9-1.552,15.932,15.932,0,0,0-7.371,2.642,7.014,7.014,0,0,0-3.163,4.456,1.067,1.067,0,0,0,.656,1.367,18.991,18.991,0,0,0,1.888.725A38.741,38.741,0,0,0,95.746,169.609Zm.023-28.01a7.7,7.7,0,1,0,7.691,7.784A7.718,7.718,0,0,0,95.769,141.6Z" transform="translate(-80.46 -139.626)"/>
</svg>
