<svg xmlns="http://www.w3.org/2000/svg" width="97.928" height="95.549" viewBox="0 0 97.928 95.549">
  <defs>
    <style>
      .cls-1 {
        fill: #ff6f0c;
      }
    </style>
  </defs>
  <g id="Group_48" data-name="Group 48" transform="translate(-843.072 -423.885)">
    <path id="Path_48" data-name="Path 48" class="cls-1" d="M916.871,493.133l3.516,3.487c.153-.039.308-.03.384-.1,2.887-2.789,2.609-3.441,6.126.115,4.034,4.078,8.2,8.029,12.2,12.142,3.557,3.662,1.911,9.12-3.034,10.44a5.708,5.708,0,0,1-5.76-1.6c-4.7-4.653-9.318-9.388-13.981-14.078a1.667,1.667,0,0,1,.1-2.768c.607-.53,1.3-.962,2.074-1.527l-4.265-3.83a27.239,27.239,0,0,1-20.672,6.5c-7.819-.786-14.165-4.418-19.226-10.694-1.113,1.687-2.077,3.133-3.026,4.589-1.882,2.885-1.875,2.882-4.928,1.465-2.984-1.385-5.973-2.755-9.047-4.172-2.308,2.584-4.549,5.1-6.794,7.6-.359.4-.678,1-1.123,1.126-.621.174-1.592.241-1.953-.114a1.968,1.968,0,0,1-.171-1.927c2.783-3.3,5.638-6.544,8.612-9.672.383-.4,1.677-.3,2.363,0,3.33,1.453,6.6,3.052,10.055,4.679,1.237-1.9,2.515-3.7,3.59-5.625a2.58,2.58,0,0,0-.225-2,27.507,27.507,0,0,1,20.674-39.634,26.748,26.748,0,0,1,21.03,5.862c.476.377.938.77,1.6,1.318l10.792-11.876c-2.209,0-3.912.006-5.615,0-1.134-.005-2.287-.082-2.282-1.616.005-1.574,1.187-1.535,2.309-1.532,2.767.008,5.535.045,8.3-.013,1.607-.034,2.4.621,2.388,2.249-.016,2.9,0,5.8-.006,8.706,0,1.138-.392,2.219-1.666,1.955a2.654,2.654,0,0,1-1.453-1.917,40.685,40.685,0,0,1-.068-5.3L917.3,456.978C925.985,469.2,925.812,481.189,916.871,493.133Zm-40.613-4.727c4.337,7.3,13.645,11.65,23.133,10.361,9.812-1.332,16.586-6.91,19.82-16.253,2.87-8.291,1.325-16.007-4.234-23.051-3.469,3.871-6.841,7.545-10.1,11.316-1.165,1.348-2.208,1.639-3.832.777-3.381-1.8-6.856-3.415-10.413-5.166Q883.374,477.506,876.258,488.406Zm36.592-31.22a24.2,24.2,0,0,0-31.658-1.581c-9.958,7.881-11.34,21.467-6.631,29.493.451-.648.881-1.234,1.278-1.842q6.135-9.395,12.263-18.794c1.405-2.15,1.737-2.241,4.087-1.073,3.076,1.528,6.123,3.116,9.232,4.572a2.009,2.009,0,0,0,1.832-.218C906.475,464.307,909.6,460.784,912.85,457.186Z"/>
    <path id="Path_49" data-name="Path 49" class="cls-1" d="M850.829,433.359c2.548,1.649,4.981,3.177,7.347,4.8a1.812,1.812,0,0,1,.612,1.456c-.584,4.115-1.258,8.218-1.933,12.5H843.072A29.839,29.839,0,0,1,850.829,433.359Z"/>
    <path id="Path_50" data-name="Path 50" class="cls-1" d="M843.249,455.6h13.823c.447,3.492.879,6.941,1.335,10.387a15.6,15.6,0,0,1,.388,2.181,2.029,2.029,0,0,1-.627,1.462c-2.3,1.62-4.668,3.141-7.172,4.8A29.342,29.342,0,0,1,843.249,455.6Z"/>
    <path id="Path_51" data-name="Path 51" class="cls-1" d="M872,452.257H860.189c.485-4.081.959-8.075,1.437-12.091L872,442.255Z"/>
    <path id="Path_52" data-name="Path 52" class="cls-1" d="M888.542,438.791l8.047-5.516a29.534,29.534,0,0,1,6.392,11.069H889.787Z"/>
    <path id="Path_53" data-name="Path 53" class="cls-1" d="M861.693,468.184l-1.506-12.557h11.551c-1.621,3.4-2.99,6.979-5.008,10.145C865.951,466.995,863.7,467.28,861.693,468.184Z"/>
    <path id="Path_54" data-name="Path 54" class="cls-1" d="M872.12,423.885v15.249l-9.387-2.024C864.718,431.665,866.553,426.68,872.12,423.885Z"/>
    <path id="Path_55" data-name="Path 55" class="cls-1" d="M885,437.08l-9.423,2.068V423.991C881.037,426.639,882.814,431.679,885,437.08Z"/>
    <path id="Path_56" data-name="Path 56" class="cls-1" d="M875.5,451.675v-9.4l10.147-2,.989,4.853Z"/>
    <path id="Path_57" data-name="Path 57" class="cls-1" d="M893.853,431.507l-5.846,4.026c-1.834-3.593-3.553-6.963-5.28-10.345A28.289,28.289,0,0,1,893.853,431.507Z"/>
    <path id="Path_58" data-name="Path 58" class="cls-1" d="M853.8,430.817l10.787-5.987.216.411-5.3,10.269-5.654-3.853Z"/>
    <path id="Path_59" data-name="Path 59" class="cls-1" d="M864.362,482.995l-10.638-6.068.095-.765,5.67-3.813,4.961,10.142Z"/>
    <path id="Path_60" data-name="Path 60" class="cls-1" d="M865.866,470.019v7.007l-.562.169-2.616-6.265Z"/>
    <path id="Path_61" data-name="Path 61" class="cls-1" d="M890.525,485.868c-.469,0-1.035.165-1.387-.038a12.676,12.676,0,0,1-1.787-1.484,7.534,7.534,0,0,1,1.873-1.594,3.622,3.622,0,0,1,2.371-.012c.753.271,1.8.9,1.914,1.517.228,1.243-.83,1.647-1.978,1.615C891.2,485.862,890.861,485.87,890.525,485.868Z"/>
    <path id="Path_62" data-name="Path 62" class="cls-1" d="M904.684,485.871c-.469,0-1.033.167-1.389-.035a13.062,13.062,0,0,1-1.819-1.47,7.419,7.419,0,0,1,1.862-1.612,6.915,6.915,0,0,1,2.392-.063c1.171-.005,2.167.509,1.917,1.707-.125.6-1.247,1.03-1.969,1.448C905.426,485.992,905.02,485.87,904.684,485.871Z"/>
  </g>
</svg>
