<svg xmlns="http://www.w3.org/2000/svg" width="16.142" height="22" viewBox="0 0 16.142 22">
  <g id="Group_6" data-name="Group 6" transform="translate(-121.148 -134.923)">
    <path id="Path_3" data-name="Path 3" d="M137.29,144.539v10.818a2.666,2.666,0,0,1-2.757,1.565c-3.627-.059-7.256-.017-10.883-.022-1.707,0-2.5-.8-2.5-2.528q-.005-4.2,0-8.4c0-1.815,0-1.813,1.835-1.909a2.371,2.371,0,0,0,.384-.1c0-1.127-.022-2.236,0-3.344a5.837,5.837,0,0,1,3.955-5.376c.289-.1.574-.217.86-.326h2.061c.041.038.074.1.122.112,3.337,1.071,4.7,2.942,4.7,6.454,0,.843,0,1.688,0,2.319Zm-14.437,1.276c0,2.992-.014,5.929.034,8.865,0,.176.5.491.767.493,3.715.032,7.431.013,11.146.031.6,0,.806-.2.8-.8-.027-1.715-.009-3.43-.009-5.144v-3.447Zm10.521-1.771c0-1.181.033-2.289-.007-3.4a4.154,4.154,0,0,0-3.581-3.989,4,4,0,0,0-4.516,2.965,28.459,28.459,0,0,0-.285,4.42Z" fill="#565656"/>
    <path id="Path_4" data-name="Path 4" d="M131.487,157.352a7.415,7.415,0,0,1,.048-2.063,1.915,1.915,0,0,1,1.112-1.161c.746-.189,1.223.4,1.246,1.145a34.2,34.2,0,0,1-.045,4.391,1.59,1.59,0,0,1-1.15,1.063c-.4,0-1.031-.614-1.155-1.068a9.085,9.085,0,0,1-.052-2.307Z" transform="translate(-3.476 -7.316)" fill="#565656"/>
  </g>
</svg>
