<svg xmlns="http://www.w3.org/2000/svg" width="29.545" height="28.492" viewBox="0 0 29.545 28.492">
  <defs>
    <style>
      .cls-1 {
        fill: #fff;
      }
    </style>
  </defs>
  <g id="Group_62" data-name="Group 62" transform="translate(-765.455 -117.838)">
    <path id="Path_79" data-name="Path 79" class="cls-1" d="M778.7,139.882c0,.936.048,1.812-.014,2.68-.058.815.178,1.179,1.056,1.121a25.538,25.538,0,0,1,2.941,0c.806.04,1.032-.273,1.027-1.062-.03-5.176,0-10.352-.035-15.528a1.828,1.828,0,0,1,.944-1.8c2-1.258,3.953-2.6,5.921-3.918a1.791,1.791,0,0,0,.712-.79c-.315-.026-.629-.074-.944-.074-3.519,0-7.037.025-10.555-.017-.864-.01-1.1.279-1.072,1.109.057,1.774.018,3.552.018,5.329l-.263.157c-.751-.807-1.523-1.6-2.24-2.433a1.4,1.4,0,0,1-.218-.838c-.02-1.691.014-3.384-.021-5.074-.014-.651.194-.9.861-.9q8.677.024,17.355,0c.607,0,.824.221.823.837q-.023,13.4,0,26.793c0,.688-.274.863-.9.861q-8.626-.021-17.253,0c-.642,0-.965-.2-.875-.874a.341.341,0,0,0,0-.1C775.468,142.9,776.645,141.238,778.7,139.882Z"/>
    <path id="Path_80" data-name="Path 80" class="cls-1" d="M774.773,134.9h-9.318v-2.937h9.309l.119-.233-3.146-2.659,2.322-2.165,6.52,6.562L773.945,140l-1.884-1.976,2.823-2.887Z"/>
  </g>
</svg>
